<svg width="512" height="512" viewBox="0 0 512 512" fill="none" xmlns="http://www.w3.org/2000/svg">
  <defs>
    <linearGradient id="paint0_linear" x1="0" y1="0" x2="512" y2="512" gradientUnits="userSpaceOnUse">
      <stop offset="0" stop-color="#F9D01B"/>
      <stop offset="1" stop-color="#0047FF"/>
    </linearGradient>

    <filter id="filter0_ii" x="-12" y="-12" width="536" height="536" filterUnits="userSpaceOnUse" color-interpolation-filters="sRGB">
      <feFlood flood-opacity="0" result="BackgroundImageFix"/>
      <feBlend mode="normal" in="SourceGraphic" in2="BackgroundImageFix" result="shape"/>
      <feColorMatrix in="SourceAlpha" type="matrix" values="0 0 0 0 0 0 0 0 0 0 0 0 0 0 0 0 0 0 127 0" result="hardAlpha"/>
      <feOffset dx="12" dy="12"/>
      <feGaussianBlur stdDeviation="8"/>
      <feComposite in2="hardAlpha" operator="arithmetic" k2="-1" k3="1"/>
      <feColorMatrix type="matrix" values="0 0 0 0 1 0 0 0 0 1 0 0 0 0 1 0 0 0 0.2 0"/>
      <feBlend mode="normal" in2="shape" result="effect1_innerShadow"/>
    </filter>

    <filter id="filter1_3d" x="-50" y="-50" width="612" height="612" filterUnits="userSpaceOnUse" color-interpolation-filters="sRGB">
      <feFlood flood-opacity="0" result="BackgroundImageFix"/>
      <feColorMatrix in="SourceAlpha" type="matrix" values="0 0 0 0 0 0 0 0 0 0 0 0 0 0 0 0 0 0 127 0"/>
      <feOffset dy="12"/>
      <feGaussianBlur stdDeviation="8"/>
      <feColorMatrix type="matrix" values="0 0 0 0 0 0 0 0 0 0 0 0 0 0 0 0 0 0 0.5 0"/>
      <feBlend mode="normal" in2="BackgroundImageFix" result="effect1_dropShadow"/>
      <feBlend mode="normal" in="SourceGraphic" in2="effect1_dropShadow" result="shape"/>
      <feColorMatrix in="SourceAlpha" type="matrix" values="0 0 0 0 0 0 0 0 0 0 0 0 0 0 0 0 0 0 127 0" result="hardAlpha"/>
      <feOffset dy="-4"/>
      <feGaussianBlur stdDeviation="4"/>
      <feComposite in2="hardAlpha" operator="arithmetic" k2="-1" k3="1"/>
      <feColorMatrix type="matrix" values="0 0 0 0 0 0 0 0 0 0 0 0 0 0 0 0 0 0 0.3 0"/>
      <feBlend mode="normal" in2="shape" result="effect_inner"/>
    </filter>
  </defs>

  <g filter="url(#filter0_ii)">
    <rect width="512" height="512" fill="url(#paint0_linear)"/>
  </g>

  <g filter="url(#filter1_3d)">
    <path d="M85 40L88 49H97L90 55L92 64L85 59L78 64L80 55L73 49H82L85 40Z" fill="white" />
    <path d="M125 75L131 93H150L135 105L140 123L125 112L110 123L115 105L100 93H119L125 75Z" fill="white" />

    <g transform="translate(168, 100) scale(1.8)">
       <path d="M35.103 8.3682C35.103 7.1299 33.989 6.1892 32.769 6.3965L1.6652 11.6777C0.7036 11.8409 0 12.6741 0 13.6494V165.085C0 166.189 0.8954 167.085 2 167.085H33.103C34.208 167.085 35.103 166.189 35.103 165.085V108.397C35.103 91.127 44.261 80.429 51.892 80.429C58.76 80.429 60.744 87.307 60.744 97.699V165.085C60.744 166.189 61.639 167.085 62.744 167.085H94C95.105 167.085 96 166.189 96 165.085V92.656C96 69.12 87.148 53.9892 64.102 53.9892C54.852 53.9892 45.825 56.2163 38.633 61.146C37.205 62.125 35.103 61.161 35.103 59.4284V8.3682Z" fill="white"/>
    </g>
  </g>
</svg>